<?xml version="1.0" standalone="no"?>
<!DOCTYPE svg PUBLIC "-//W3C//DTD SVG 20010904//EN"
 "http://www.w3.org/TR/2001/REC-SVG-20010904/DTD/svg10.dtd">
<svg version="1.0" xmlns="http://www.w3.org/2000/svg"
 width="3840.000000pt" height="2160.000000pt" viewBox="0 0 3840.000000 2160.000000"
 preserveAspectRatio="xMidYMid meet">

<g transform="translate(0.000000,2160.000000) scale(0.100000,-0.100000)"
fill="#000000" stroke="none">
<path d="M5185 18214 c-182 -10 -508 -46 -545 -60 -8 -3 -49 -12 -90 -20 -123
-23 -253 -51 -285 -62 -16 -6 -75 -22 -130 -37 -95 -26 -170 -52 -385 -132
-192 -71 -311 -127 -605 -282 -52 -28 -168 -97 -220 -132 -46 -31 -154 -102
-189 -123 -31 -20 -97 -69 -256 -192 -175 -135 -588 -539 -674 -658 -16 -23
-42 -54 -58 -71 -44 -45 -175 -221 -278 -375 -40 -59 -131 -210 -165 -275 -21
-38 -55 -99 -75 -135 -122 -210 -310 -682 -370 -925 -12 -49 -30 -124 -40
-165 -83 -333 -112 -583 -118 -1010 -4 -390 8 -534 79 -920 11 -58 50 -226 74
-320 8 -30 21 -80 29 -110 7 -30 42 -129 76 -220 35 -91 71 -189 82 -218 27
-77 154 -347 193 -412 18 -30 51 -89 73 -131 23 -42 54 -98 71 -125 16 -27 42
-69 57 -94 15 -25 46 -70 69 -100 23 -30 48 -66 55 -80 7 -14 47 -67 89 -119
109 -135 139 -173 158 -201 9 -14 53 -62 97 -108 44 -45 84 -89 89 -97 4 -8
87 -89 184 -180 175 -164 305 -272 472 -392 47 -34 115 -82 151 -108 74 -53
165 -110 230 -145 25 -14 86 -48 135 -76 107 -62 301 -155 485 -235 71 -30
321 -121 385 -140 129 -37 319 -88 360 -97 28 -5 104 -21 170 -35 288 -59 304
-61 640 -78 235 -12 689 -2 900 20 104 11 348 53 465 81 25 5 69 14 98 20 29
5 91 21 137 35 47 14 117 34 157 45 217 57 676 258 863 379 39 24 95 58 125
74 30 16 74 44 97 61 23 17 77 56 119 86 43 30 96 71 118 90 23 20 73 61 111
92 106 85 262 230 381 356 484 510 811 1143 964 1862 5 25 18 83 29 130 11 47
25 127 31 179 6 52 13 98 17 104 3 5 9 60 14 122 4 62 13 133 19 157 15 58 8
678 -9 868 -17 199 -37 311 -59 332 -17 17 -122 18 -2132 18 -1163 0 -2125 0
-2137 0 -41 0 -43 -31 -43 -646 0 -571 0 -584 20 -604 20 -20 33 -20 1523 -20
1156 0 1506 -3 1515 -12 21 -21 13 -112 -28 -313 -18 -84 -78 -312 -96 -360
-81 -216 -105 -277 -113 -292 -5 -10 -31 -61 -56 -113 -42 -84 -190 -318 -234
-368 -118 -136 -258 -282 -306 -320 -33 -26 -85 -70 -117 -99 -63 -57 -308
-224 -438 -298 -185 -105 -461 -214 -715 -284 -85 -23 -290 -61 -327 -61 -15
0 -53 -7 -85 -15 -31 -8 -96 -15 -143 -16 -47 0 -123 -5 -170 -10 -96 -11
-256 -13 -333 -5 -29 4 -124 11 -212 16 -88 5 -178 14 -200 20 -22 5 -107 23
-190 39 -178 35 -212 44 -330 81 -457 145 -860 376 -1235 709 -87 78 -183 175
-256 260 -16 19 -45 53 -64 75 -241 275 -489 717 -604 1075 -73 227 -106 342
-106 368 0 12 -5 34 -10 49 -6 14 -15 54 -20 88 -5 33 -14 88 -19 121 -26 150
-33 270 -32 532 1 380 29 593 125 943 28 106 85 279 100 309 9 16 16 36 16 42
0 19 174 370 232 469 71 120 219 330 302 428 135 158 162 187 251 271 50 47
107 102 128 123 20 20 64 55 96 78 33 22 62 44 66 50 26 43 372 263 561 358
106 53 304 132 449 178 77 24 154 49 170 55 17 6 60 17 98 24 37 8 71 16 76
19 4 3 51 10 102 16 52 6 123 18 159 27 96 25 799 26 910 1 41 -9 122 -24 180
-33 145 -22 210 -35 247 -51 17 -8 37 -14 43 -14 33 0 317 -103 455 -165 138
-62 181 -85 320 -167 159 -96 201 -124 304 -202 85 -65 92 -70 180 -147 42
-36 89 -74 105 -84 l28 -19 302 305 c425 431 556 572 556 599 0 28 -70 96
-272 261 -258 212 -656 465 -943 599 -215 100 -601 240 -735 266 -19 3 -39 10
-45 14 -5 4 -37 13 -70 18 -33 6 -107 20 -165 31 -165 32 -205 39 -370 60
-134 18 -239 24 -600 35 -36 1 -155 -3 -265 -10z"/>
<path d="M30258 17899 c-17 -9 -18 -232 -18 -4442 0 -3435 3 -4436 12 -4445 9
-9 168 -12 655 -12 625 0 643 1 653 19 7 14 9 1399 8 4441 -3 4364 -3 4422
-22 4436 -17 12 -121 14 -645 14 -407 -1 -632 -4 -643 -11z"/>
<path d="M13085 14854 c-5 -1 -64 -8 -130 -14 -121 -13 -375 -65 -545 -113
-67 -19 -271 -92 -297 -106 -10 -6 -92 -47 -183 -91 -152 -74 -217 -111 -318
-181 -20 -14 -69 -47 -109 -73 -39 -26 -93 -67 -120 -92 -26 -25 -79 -71 -118
-104 -154 -129 -401 -430 -531 -645 -219 -362 -342 -717 -415 -1190 -26 -175
-20 -740 11 -878 5 -23 18 -91 30 -152 11 -60 30 -139 40 -175 11 -36 31 -105
46 -155 60 -205 189 -485 308 -670 205 -317 461 -595 726 -787 69 -50 141
-103 160 -117 19 -15 60 -40 90 -56 30 -16 73 -40 95 -52 242 -140 583 -264
900 -328 207 -42 272 -48 560 -52 246 -4 299 -2 440 17 362 49 762 176 1064
338 63 34 118 62 122 62 4 0 14 6 21 13 7 6 58 42 113 79 519 346 918 855
1134 1449 17 47 31 92 31 100 1 8 9 32 20 54 11 22 19 49 20 61 0 11 6 40 14
65 15 49 45 198 73 359 14 85 18 164 18 415 0 274 -3 327 -23 455 -12 80 -27
159 -31 175 -5 17 -12 48 -16 70 -3 22 -12 60 -19 85 -65 220 -123 394 -147
440 -10 19 -38 78 -63 130 -84 177 -158 300 -269 450 -160 215 -281 342 -538
565 -19 16 -108 79 -199 140 -430 287 -922 458 -1450 505 -105 9 -482 12 -515
4z m425 -1179 c115 -6 194 -24 368 -82 185 -63 296 -123 507 -276 82 -59 285
-283 351 -387 117 -184 216 -407 251 -565 28 -126 32 -154 48 -279 24 -197 15
-476 -20 -643 -48 -224 -114 -411 -189 -536 -23 -40 -58 -99 -76 -132 -51 -91
-240 -310 -322 -372 -186 -142 -237 -176 -370 -241 -148 -73 -241 -106 -411
-143 -107 -24 -415 -34 -532 -18 -91 13 -282 61 -366 93 -59 22 -252 117 -318
157 -28 16 -162 120 -235 182 -94 79 -267 296 -336 419 -96 173 -152 313 -188
463 -59 249 -57 235 -57 520 0 218 3 288 18 365 53 278 150 521 296 741 168
253 510 532 761 622 25 9 65 23 90 32 123 45 277 77 410 84 74 4 155 6 180 4
25 -1 88 -5 140 -8z"/>
<path d="M26105 14845 c-113 -15 -238 -40 -305 -60 -25 -7 -90 -26 -145 -41
-55 -15 -145 -45 -200 -67 -139 -54 -402 -189 -510 -261 -232 -155 -464 -352
-607 -516 -31 -36 -82 -94 -113 -130 -76 -88 -277 -391 -330 -498 -203 -409
-276 -644 -331 -1062 -43 -330 -29 -664 41 -1019 32 -161 59 -258 101 -359 8
-18 14 -37 14 -43 0 -6 9 -29 19 -52 10 -23 38 -87 61 -142 58 -136 128 -266
223 -415 306 -475 739 -857 1247 -1101 94 -45 284 -117 365 -139 39 -11 100
-28 136 -38 59 -18 173 -42 334 -72 141 -26 489 -22 700 9 185 26 555 150 674
225 22 14 44 26 49 26 11 0 153 95 243 162 41 31 103 86 139 123 104 108 113
115 142 115 l27 0 3 -112 c5 -202 -8 -641 -21 -713 -26 -141 -62 -301 -78
-345 -90 -257 -157 -381 -290 -542 -85 -102 -157 -167 -272 -243 -242 -159
-460 -230 -789 -256 -196 -15 -344 -5 -567 40 -189 38 -439 169 -630 331 -162
138 -345 369 -437 554 -31 62 -61 110 -74 117 -20 10 -37 6 -121 -25 -109 -42
-127 -49 -228 -94 -106 -47 -213 -92 -219 -92 -3 0 -29 -11 -58 -25 -29 -13
-82 -35 -118 -49 -94 -35 -277 -113 -330 -139 -51 -25 -61 -53 -37 -102 9 -16
28 -57 43 -90 68 -150 239 -410 373 -569 194 -229 370 -395 551 -519 254 -175
345 -222 728 -376 111 -45 365 -104 522 -121 52 -6 122 -15 155 -20 79 -13
489 -12 585 1 41 5 129 16 195 24 261 32 513 100 771 211 57 24 106 44 108 44
16 0 253 142 346 207 174 122 389 327 517 493 80 103 133 177 133 185 0 3 15
28 34 57 70 111 226 438 226 476 0 8 7 28 15 45 8 18 21 55 29 82 7 28 27 97
44 155 54 192 84 331 103 485 6 50 16 119 22 155 16 89 22 5911 7 5940 -10 20
-24 20 -603 20 -497 0 -596 -2 -613 -14 -18 -13 -19 -29 -21 -226 -1 -116 -4
-218 -7 -226 -13 -35 -52 -12 -162 94 -132 127 -262 218 -449 317 -191 100
-478 188 -718 220 -146 19 -499 19 -642 0z m625 -1175 c219 -27 427 -96 602
-202 187 -113 420 -337 515 -496 21 -35 48 -80 61 -100 38 -63 89 -165 102
-207 7 -22 16 -44 20 -50 17 -23 80 -225 90 -290 6 -38 15 -84 21 -101 9 -28
31 -257 31 -324 1 -104 -24 -446 -36 -490 -7 -30 -16 -74 -20 -98 -6 -38 -27
-109 -71 -232 -21 -59 -92 -206 -145 -299 -98 -172 -290 -381 -467 -507 -90
-64 -275 -158 -394 -199 -180 -61 -238 -69 -489 -69 -195 0 -238 2 -325 22
-324 72 -607 227 -843 462 -137 136 -300 379 -359 533 -12 31 -31 81 -42 110
-41 106 -88 283 -97 361 -3 33 -10 70 -15 84 -5 13 -9 114 -10 225 0 157 4
232 21 336 11 73 24 141 29 150 5 9 12 34 15 56 4 22 21 78 37 125 17 47 34
99 38 115 30 110 205 399 318 526 145 161 372 337 535 413 76 35 257 98 318
110 19 4 46 12 60 17 65 24 361 36 500 19z"/>
<path d="M34755 14854 c-248 -20 -611 -105 -825 -195 -97 -41 -397 -196 -452
-235 -224 -156 -325 -240 -479 -396 -62 -62 -230 -268 -273 -334 -88 -136
-141 -219 -152 -239 -43 -83 -95 -186 -107 -215 -141 -326 -191 -486 -238
-755 -118 -668 -49 -1349 190 -1890 5 -11 19 -42 31 -70 11 -27 28 -63 36 -80
9 -16 37 -70 62 -120 25 -49 57 -106 72 -125 15 -19 44 -64 64 -100 62 -106
260 -342 400 -477 172 -164 386 -326 540 -407 27 -14 54 -30 60 -35 6 -5 49
-28 96 -51 47 -23 96 -48 110 -55 33 -17 288 -109 370 -134 114 -35 311 -79
435 -98 174 -26 707 -26 880 0 124 19 398 84 476 112 24 9 82 29 129 45 129
44 216 82 339 149 61 34 114 61 116 61 12 0 178 109 265 173 216 159 431 362
575 542 40 49 85 104 100 120 33 37 65 86 65 102 0 6 -21 24 -47 39 -27 16
-56 33 -65 39 -9 5 -81 53 -160 106 -79 52 -195 130 -258 171 -63 42 -137 92
-165 111 -148 101 -298 197 -310 197 -14 0 -95 -91 -95 -108 0 -22 -154 -189
-264 -287 -233 -206 -508 -340 -826 -401 -147 -28 -494 -26 -655 4 -188 34
-436 131 -582 228 -151 100 -316 276 -460 489 -72 107 -95 159 -84 189 6 15
18 26 28 26 10 0 35 9 56 20 20 11 43 20 49 20 7 0 27 7 43 16 17 9 57 27 90
39 33 13 105 43 160 68 55 24 144 61 197 81 100 37 216 86 328 138 36 17 106
45 155 63 83 31 235 93 345 142 144 65 213 93 223 93 7 0 29 9 50 20 20 11 42
20 49 20 6 0 30 8 52 19 106 48 206 91 212 91 3 0 20 6 37 14 76 34 175 75
217 89 25 8 80 31 124 51 43 20 82 36 86 36 5 0 41 15 82 34 40 18 123 53 183
76 61 23 118 46 128 52 10 5 57 25 105 45 48 19 130 53 182 75 52 21 167 69
255 105 249 102 261 107 413 172 78 33 146 61 151 61 4 0 12 10 18 23 8 18 7
31 -8 57 -10 19 -18 41 -19 48 0 7 -12 39 -26 70 -36 80 -40 89 -69 162 -15
36 -33 79 -41 97 -8 17 -14 38 -14 46 0 8 -7 20 -15 27 -8 7 -15 17 -15 23 0
10 -43 110 -60 137 -5 8 -21 38 -36 65 -14 28 -42 73 -60 101 -19 28 -34 54
-34 58 0 4 -23 42 -52 84 -45 67 -87 124 -226 309 -43 57 -316 331 -367 368
-22 16 -77 58 -122 94 -106 82 -204 142 -378 232 -267 137 -562 222 -900 259
-75 8 -400 10 -490 4z m584 -1173 c123 -27 225 -63 336 -116 109 -52 159 -87
280 -199 72 -66 105 -106 144 -173 28 -49 51 -100 51 -116 0 -24 -8 -31 -72
-61 -40 -19 -118 -53 -173 -76 -55 -22 -113 -47 -130 -55 -29 -13 -92 -38
-185 -75 -87 -35 -225 -92 -265 -111 -22 -10 -89 -38 -150 -62 -60 -25 -209
-86 -330 -137 -121 -51 -294 -123 -385 -160 -91 -37 -217 -90 -280 -118 -63
-28 -137 -59 -165 -70 -85 -34 -266 -107 -360 -147 -196 -81 -186 -78 -203
-61 -13 12 -15 38 -14 133 2 150 9 204 39 332 47 203 105 342 229 550 58 97
240 300 329 368 39 29 89 69 112 88 23 19 44 35 48 35 4 0 19 8 33 19 40 27
243 131 258 131 7 0 48 14 91 30 69 27 200 60 288 74 17 2 109 3 205 1 135 -2
197 -7 269 -24z"/>
<path d="M10685 6654 c-144 -37 -232 -109 -276 -227 -70 -187 26 -381 224
-455 73 -27 127 -28 202 -2 154 53 267 217 252 365 -13 127 -115 259 -228 297
-59 19 -142 30 -174 22z"/>
<path d="M2649 6544 c-10 -3 -20 -15 -23 -27 -3 -12 -6 -700 -6 -1529 0 -1356
2 -1508 16 -1522 13 -14 56 -16 319 -16 267 0 304 2 309 16 3 9 6 247 6 529 0
454 2 515 16 529 13 14 49 16 235 16 131 0 228 -4 239 -10 19 -10 86 -117 150
-238 78 -146 117 -217 191 -344 43 -75 79 -139 79 -143 0 -3 34 -65 75 -136
41 -72 75 -134 75 -138 0 -4 15 -24 34 -44 l34 -37 353 2 354 3 3 22 c2 12
-11 42 -30 70 -19 26 -76 120 -127 208 -51 88 -109 184 -127 213 -19 28 -73
118 -121 200 -47 81 -121 203 -164 272 -79 127 -96 176 -69 191 8 5 52 22 97
39 198 74 352 222 454 435 72 151 91 244 91 440 0 216 -21 310 -109 483 -133
261 -352 420 -678 494 -86 20 -124 21 -875 24 -432 1 -792 0 -801 -2z m1433
-594 c87 -13 190 -62 246 -117 24 -24 58 -74 75 -111 30 -63 32 -74 32 -177 0
-103 -2 -114 -32 -177 -53 -113 -149 -187 -288 -223 -84 -21 -806 -23 -828 -1
-11 12 -14 81 -13 401 1 371 2 387 20 401 16 11 83 14 370 14 193 0 381 -5
418 -10z"/>
<path d="M6370 5754 c-319 -61 -437 -111 -620 -263 -89 -75 -136 -128 -205
-232 -106 -158 -151 -276 -186 -484 -17 -105 -21 -152 -16 -245 10 -195 57
-394 121 -521 209 -411 591 -632 1091 -631 232 1 467 52 673 148 83 39 211
133 218 161 4 16 -5 38 -35 80 -23 32 -74 108 -114 168 -40 61 -80 111 -90
113 -10 2 -52 -19 -95 -46 -131 -83 -266 -134 -415 -154 -228 -31 -471 57
-599 216 -91 113 -157 292 -117 317 8 5 366 9 801 9 481 0 797 4 812 10 14 5
28 20 31 32 9 37 -13 340 -30 415 -43 185 -75 268 -152 393 -163 267 -374 419
-683 491 -83 19 -332 34 -390 23z m344 -497 c81 -30 164 -85 213 -141 72 -83
136 -249 118 -305 -6 -21 -7 -21 -534 -21 -459 0 -530 2 -541 15 -19 23 -4 89
40 180 66 137 154 219 288 269 87 32 106 35 237 31 88 -2 124 -8 179 -28z"/>
<path d="M12495 5754 c-143 -22 -280 -62 -385 -113 -127 -61 -187 -105 -321
-233 -89 -84 -198 -266 -250 -413 -68 -197 -87 -444 -49 -651 52 -284 151
-476 337 -655 330 -319 878 -400 1416 -210 146 51 327 170 329 216 1 16 -156
263 -215 338 -20 24 -44 21 -80 -9 -39 -33 -214 -117 -297 -142 -218 -66 -426
-49 -598 50 -120 69 -223 197 -270 337 -26 76 -27 94 -8 110 11 9 212 12 793
11 428 0 793 3 811 6 52 10 55 29 43 220 -17 260 -62 415 -183 627 -48 84 -83
130 -145 192 -98 98 -170 154 -243 190 -30 15 -64 31 -74 37 -35 19 -131 49
-221 69 -87 20 -319 33 -390 23z m259 -474 c78 -12 216 -81 270 -133 83 -81
170 -269 150 -325 l-9 -27 -535 0 -535 0 1 55 c2 99 86 245 185 323 60 47 164
96 226 107 69 11 179 11 247 0z"/>
<path d="M18465 5754 c-168 -26 -308 -67 -404 -120 -267 -147 -399 -396 -362
-682 19 -144 69 -248 170 -353 83 -84 264 -171 451 -214 30 -7 75 -18 100 -24
25 -6 90 -20 145 -32 342 -72 415 -102 456 -181 24 -48 24 -113 0 -164 -32
-66 -98 -113 -197 -139 -84 -23 -246 -21 -365 4 -163 34 -385 132 -513 227
-33 24 -65 44 -72 44 -7 0 -28 -24 -46 -54 -18 -30 -70 -114 -116 -187 -49
-78 -82 -141 -80 -153 6 -39 212 -175 337 -222 445 -168 932 -166 1272 6 119
61 248 191 297 301 50 112 57 149 57 294 0 143 -10 194 -59 305 -54 123 -207
255 -366 314 -41 16 -91 34 -110 42 -44 17 -111 33 -380 94 -301 67 -366 95
-406 173 -35 66 8 162 96 216 120 74 289 84 503 31 125 -31 294 -114 371 -181
l43 -38 20 22 c36 40 215 358 209 372 -11 31 -240 169 -321 195 -22 7 -44 16
-50 20 -5 5 -28 11 -50 15 -22 4 -48 12 -57 17 -45 23 -241 50 -388 53 -85 2
-168 1 -185 -1z"/>
<path d="M7764 5648 c8 -40 40 -125 97 -253 4 -11 29 -72 55 -135 25 -63 59
-146 75 -185 16 -38 29 -75 29 -80 0 -6 9 -27 20 -48 11 -20 20 -42 20 -48 0
-7 9 -30 19 -53 31 -67 95 -221 156 -376 31 -80 94 -235 140 -345 46 -110 117
-286 158 -391 93 -236 111 -272 140 -279 12 -3 153 -4 312 -3 l290 3 23 45
c12 25 49 113 83 195 34 83 65 159 69 170 5 11 41 101 81 200 65 162 206 512
303 750 20 50 43 104 50 120 7 17 29 71 49 120 19 50 58 146 85 215 27 69 59
145 70 170 29 63 92 221 92 231 0 5 -139 9 -310 9 l-310 0 -15 -23 c-8 -13
-30 -66 -49 -118 -37 -104 -110 -300 -181 -484 -26 -66 -50 -131 -55 -145 -5
-14 -20 -54 -33 -90 -14 -36 -47 -126 -75 -200 -28 -74 -64 -169 -81 -210 -17
-41 -31 -79 -31 -85 0 -5 -7 -23 -15 -38 -8 -16 -19 -46 -25 -68 -9 -31 -15
-39 -34 -39 -17 0 -27 9 -36 33 -7 17 -19 46 -25 62 -13 32 -66 167 -97 250
-10 28 -28 77 -39 110 -21 61 -39 107 -114 300 -65 163 -92 237 -140 370 -24
66 -66 176 -92 245 l-49 125 -308 3 -309 2 7 -32z"/>
<path d="M10462 4568 l3 -1113 276 -3 c257 -2 277 -1 292 16 16 17 17 102 15
1113 l-3 1094 -293 3 -292 2 2 -1112z"/>
<path d="M13946 5671 c-3 -5 1 -28 9 -52 8 -24 24 -78 36 -119 12 -41 30 -101
40 -133 11 -31 19 -64 19 -72 0 -8 6 -29 14 -47 7 -18 23 -64 35 -103 11 -38
36 -117 54 -175 19 -58 44 -141 57 -185 13 -44 32 -106 42 -137 10 -32 18 -64
18 -72 0 -9 6 -30 14 -48 7 -18 23 -64 35 -103 11 -38 36 -117 55 -175 33
-102 97 -314 138 -455 11 -38 26 -88 33 -110 8 -22 24 -74 36 -115 39 -128 14
-120 355 -120 l293 0 20 26 c12 15 21 32 21 39 0 7 11 46 24 86 13 41 40 128
61 194 20 66 41 129 46 140 9 19 20 56 54 180 15 54 60 200 150 480 32 99 65
205 73 235 16 64 46 110 61 95 10 -10 151 -445 210 -645 17 -58 65 -211 106
-340 77 -235 104 -323 129 -413 22 -78 13 -76 343 -77 l293 0 19 38 c18 36 37
94 66 209 7 28 16 56 19 61 3 6 21 61 40 123 19 63 64 211 100 329 37 118 75
244 86 280 33 113 110 361 144 465 18 55 42 132 54 170 86 283 155 514 159
533 l5 22 -301 0 -301 0 -11 -27 c-6 -16 -17 -53 -24 -83 -7 -30 -23 -89 -34
-130 -12 -41 -30 -106 -41 -145 -10 -38 -44 -155 -75 -260 -31 -104 -60 -211
-65 -237 -5 -25 -16 -68 -24 -95 -9 -26 -23 -75 -32 -108 -51 -190 -105 -365
-114 -365 -17 0 -43 43 -56 92 -13 55 -36 127 -59 188 -7 19 -25 73 -40 120
-15 47 -50 150 -77 230 -27 80 -60 181 -73 225 -13 44 -28 91 -33 105 -6 14
-22 61 -36 105 -49 154 -113 341 -125 363 -12 22 -14 22 -266 22 l-255 0 -19
-42 c-11 -24 -47 -131 -81 -238 -34 -107 -65 -202 -69 -210 -4 -8 -20 -55 -35
-105 -16 -49 -34 -106 -41 -125 -8 -19 -26 -75 -40 -125 -15 -49 -31 -100 -36
-113 -5 -12 -40 -116 -78 -230 -73 -221 -90 -262 -102 -262 -16 0 -22 16 -63
165 -8 28 -39 136 -69 240 -30 105 -70 244 -87 310 -18 66 -62 221 -97 345
-35 124 -71 250 -80 280 -8 30 -18 66 -22 80 l-8 25 -296 3 c-169 1 -298 -2
-301 -7z"/>
</g>
</svg>
